<svg width="60" height="30" viewBox="0 0 60 30" fill="none" xmlns="http://www.w3.org/2000/svg">
<path d="M60 30H0V0H60V30Z" fill="#000066"/>
<path d="M0 30V26.6459L53.292 -9.7394e-05H60V3.3539L6.708 29.9999L0 30ZM60 30V26.646L6.708 1.78814e-06H0V3.354L53.292 30H60Z" fill="white"/>
<path d="M25 30V0H35V30H25ZM0 20V10H60V20H0Z" fill="white"/>
<path d="M0 18V12H60V18H0ZM27 30V0H33V30H27Z" fill="#CC0000"/>
<path d="M0 0L20 10H24.472L4.472 0H0ZM0 30L20 20H15.528L0 27.7639L0 30ZM35.528 20L55.528 30H60L40 20H35.528ZM60 0L40 10H44.472L60 2.236V0Z" fill="#CC0000"/>
</svg>
